# xmcd
#
# Track frame offsets: 
#        150
#        9844
#        20722
#        31444
#        40421
#        49290
#        62646
#        82137
#        93395
#        102866
#        114395
#        130067
#
# Disc length: 1854 seconds
#
# Revision: 0
# Processed by: cddbd v1.5.2PL0 Copyright (c) Steve Scherf et al.
# Submitted via: ExactAudioCopy v1.1
#
DISCID=99073c0c
DTITLE=Mad Dog and The Smokin' Js - Wired And Tired
DYEAR=2011
DGENRE=Country
TTITLE0=One Way Ticket
TTITLE1=Roadie Life
TTITLE2=Little Ms. Sally
TTITLE3=Salty Leather
TTITLE4=Wired and Tired
TTITLE5=Bullrider Blues
TTITLE6=Rollin' With Our Clothes On
TTITLE7=Devil's Beckoned Call
TTITLE8=No Lovin'
TTITLE9=100 Bucks
TTITLE10=Switch Blade Pompadour
TTITLE11=Drinkin' and Smokin'
EXTD=
EXTT0=
EXTT1=
EXTT2=
EXTT3=
EXTT4=
EXTT5=
EXTT6=
EXTT7=
EXTT8=
EXTT9=
EXTT10=
EXTT11=
PLAYORDER=
